<?xml version="1.0" encoding="UTF-8" standalone="no"?>
<svg
   xmlns:dc="http://purl.org/dc/elements/1.1/"
   xmlns:cc="http://creativecommons.org/ns#"
   xmlns:rdf="http://www.w3.org/1999/02/22-rdf-syntax-ns#"
   xmlns:svg="http://www.w3.org/2000/svg"
   xmlns="http://www.w3.org/2000/svg"
   xmlns:sodipodi="http://sodipodi.sourceforge.net/DTD/sodipodi-0.dtd"
   xmlns:inkscape="http://www.inkscape.org/namespaces/inkscape"
   version="1.1"
   id="Layer_1"
   x="0px"
   y="0px"
   viewBox="0 0 36 36"
   xml:space="preserve"
   sodipodi:docname="Alipay.svg"
   width="36"
   height="36"
   inkscape:version="0.92.4 (unknown)"><defs
     id="defs11" /><sodipodi:namedview
     pagecolor="#ffffff"
     bordercolor="#666666"
     borderopacity="1"
     objecttolerance="10"
     gridtolerance="10"
     guidetolerance="10"
     inkscape:pageopacity="0"
     inkscape:pageshadow="2"
     inkscape:window-width="1920"
     inkscape:window-height="989"
     id="namedview9"
     showgrid="false"
     fit-margin-top="0"
     fit-margin-left="0"
     fit-margin-right="0"
     fit-margin-bottom="0"
     inkscape:zoom="4.9166667"
     inkscape:cx="18"
     inkscape:cy="18"
     inkscape:window-x="0"
     inkscape:window-y="0"
     inkscape:window-maximized="1"
     inkscape:current-layer="Layer_1" /><path
     d="m 36,5 v 27 a 4,4 0 0 1 -4,4 H 5 A 5,5 0 0 1 0,31 V 5 A 5,5 0 0 1 5,0 h 26 a 5,5 0 0 1 5,5 z"
     id="path2"
     inkscape:connector-curvature="0"
     style="fill:#5b9edd" /><path
     d="M 23.91,21.17 C 26,17.641 27,13 27,13 h -7 v -2 h 9 V 9 H 20 V 5.02 L 16,5 V 9 H 7 v 2 h 9 v 2 H 8 v 2 c 0,0 13.125,0 14.5,-0.01 -0.281,0.793 -0.99,3.189 -2.015,5.055 C 16.602,18.84 13.019,18 10.143,18 c -6.898,0 -8.428,3.481 -8.102,6.664 0.263,2.54 2.145,6.248 7.893,6.248 5.251,0 9.49,-3.023 12.099,-6.622 C 27.008,26.591 32.263,28.909 36,31 V 24.962 C 32.049,23.601 27.89,22.531 23.91,21.17 Z M 9.098,28.762 c -4.858,0 -5.61,-2.75 -5.694,-4.392 -0.079,-1.436 0.886,-4.132 6.371,-4.132 2.04,0 5.276,1.046 8.909,2.57 -2.053,2.708 -5.343,5.954 -9.586,5.954 z"
     id="path4"
     inkscape:connector-curvature="0"
     style="fill:#ffffff" /><metadata
     id="metadata6"><rdf:RDF><rdf:Description
         about="https://iconscout.com/legal#licenses"
         dc:title="alipay"
         dc:description="alipay"
         dc:publisher="Iconscout"
         dc:date="2017-12-15"
         dc:format="image/svg+xml"
         dc:language="en"><dc:creator><rdf:Bag><rdf:li>Icons8</rdf:li></rdf:Bag></dc:creator></rdf:Description><cc:Work
         rdf:about=""><dc:format>image/svg+xml</dc:format><dc:type
           rdf:resource="http://purl.org/dc/dcmitype/StillImage" /><dc:title></dc:title></cc:Work></rdf:RDF></metadata></svg>